<svg xmlns="http://www.w3.org/2000/svg" viewBox="0 0 720 240" shape-rendering="crispEdges">
<style>.bg{fill:#0a1628}.lbl{font:9px monospace;fill:#e8eef7}.cn{font:bold 13px monospace;fill:#fff}.ct{font:11px monospace;fill:#fff}</style>
<rect class="bg" width="720" height="240"/>
<g transform="translate(30,30)"><rect width="96" height="144" fill="#3aa8e8" stroke="#fff" stroke-width="3"/><text class="cn" x="22" y="24">RAIN</text><line x1="32" y1="58" x2="28" y2="78" stroke="#fff" stroke-width="3"/><line x1="48" y1="54" x2="44" y2="78" stroke="#fff" stroke-width="3"/><line x1="64" y1="58" x2="60" y2="78" stroke="#fff" stroke-width="3"/><circle cx="48" cy="92" r="3" fill="#fff"/><text class="ct" x="44" y="128">1</text></g>
<g transform="translate(140,30)"><rect width="96" height="144" fill="#f0b340" stroke="#fff" stroke-width="3"/><text class="cn" x="28" y="24">SUN</text><circle cx="48" cy="80" r="14" fill="#fff"/><line x1="48" y1="52" x2="48" y2="62" stroke="#fff" stroke-width="3"/><line x1="48" y1="98" x2="48" y2="108" stroke="#fff" stroke-width="3"/><line x1="20" y1="80" x2="30" y2="80" stroke="#fff" stroke-width="3"/><line x1="66" y1="80" x2="76" y2="80" stroke="#fff" stroke-width="3"/><text class="ct" x="44" y="128">1</text></g>
<g transform="translate(250,30)"><rect width="96" height="144" fill="#7ad8e8" stroke="#fff" stroke-width="3"/><text class="cn" x="22" y="24">FROST</text><line x1="48" y1="55" x2="48" y2="105" stroke="#fff" stroke-width="3"/><line x1="28" y1="80" x2="68" y2="80" stroke="#fff" stroke-width="3"/><line x1="34" y1="66" x2="62" y2="94" stroke="#fff" stroke-width="3"/><line x1="62" y1="66" x2="34" y2="94" stroke="#fff" stroke-width="3"/><text class="ct" x="44" y="128">1</text></g>
<g transform="translate(360,30)"><rect width="96" height="144" fill="#5fc97e" stroke="#fff" stroke-width="3"/><text class="cn" x="24" y="24">WIND</text><path d="M22,68 Q42,58 62,68 T82,68" stroke="#fff" stroke-width="3" fill="none"/><path d="M22,84 Q42,74 62,84 T82,84" stroke="#fff" stroke-width="3" fill="none"/><path d="M22,100 Q42,90 62,100" stroke="#fff" stroke-width="3" fill="none"/><text class="ct" x="44" y="128">1</text></g>
<g transform="translate(470,30)"><rect width="96" height="144" fill="#a06fe8" stroke="#fff" stroke-width="3"/><text class="cn" x="22" y="24">LIGHT</text><path d="M52,54 L36,86 L48,86 L40,110 L60,76 L48,76 Z" fill="#f5e89c" stroke="#fff" stroke-width="2"/><text class="ct" x="44" y="128">1</text></g>
<g transform="translate(580,30)"><rect width="96" height="144" fill="#8a9bb4" stroke="#fff" stroke-width="3"/><text class="cn" x="28" y="24">FOG</text><path d="M22,70 Q36,60 50,70 T78,70" stroke="#fff" stroke-width="4" fill="none"/><path d="M18,86 Q34,76 50,86 T78,86" stroke="#fff" stroke-width="4" fill="none"/><path d="M26,102 Q40,94 56,102" stroke="#fff" stroke-width="4" fill="none"/><text class="ct" x="44" y="128">1</text></g>
<text class="lbl" x="30" y="200">6 Weather Cards v2 — 96x144 mock @ 32x48 source intent — palette per ART_DIRECTION.md §4</text>
<text class="lbl" x="30" y="216">RAIN/SUN/FROST = 1 tile · WIND = 3-tile cross · LIGHTNING = conductive flood-fill · FOG = 3x3 area</text>
</svg>
