<svg xmlns="http://www.w3.org/2000/svg" viewBox="0 0 540 240" shape-rendering="crispEdges">
<style>.bg{fill:#0a1628}.lbl{font:9px monospace;fill:#e8eef7}.t{font:8px monospace;fill:#aab8c8}</style>
<rect class="bg" width="540" height="240"/>
<!-- Row 1 -->
<g transform="translate(20,30)"><rect width="72" height="72" fill="#1a2840"/><rect x="28" y="20" width="16" height="20" fill="#3a4a6a"/><circle cx="32" cy="28" r="1.5" fill="#fff"/><circle cx="40" cy="28" r="1.5" fill="#fff"/><rect x="24" y="36" width="24" height="24" fill="#4a5a7a"/><rect x="28" y="60" width="6" height="8" fill="#3a2810"/><rect x="38" y="60" width="6" height="8" fill="#3a2810"/><text class="t" x="22" y="86">IDLE</text></g>
<g transform="translate(120,30)"><rect width="72" height="72" fill="#1a2840"/><rect x="28" y="22" width="16" height="20" fill="#3a4a6a"/><circle cx="32" cy="30" r="1.5" fill="#fff"/><circle cx="40" cy="30" r="1.5" fill="#fff"/><rect x="24" y="38" width="24" height="22" fill="#4a5a7a"/><rect x="26" y="58" width="6" height="10" fill="#3a2810"/><rect x="40" y="60" width="6" height="8" fill="#3a2810"/><text class="t" x="22" y="86">WALK</text></g>
<g transform="translate(220,30)"><rect width="72" height="72" fill="#1a2840"/><rect x="28" y="18" width="16" height="20" fill="#3a4a6a"/><circle cx="32" cy="26" r="2" fill="#fff"/><circle cx="40" cy="26" r="2" fill="#fff"/><rect x="22" y="36" width="28" height="24" fill="#4a5a7a"/><line x1="20" y1="40" x2="14" y2="32" stroke="#4a5a7a" stroke-width="3"/><line x1="52" y1="40" x2="58" y2="32" stroke="#4a5a7a" stroke-width="3"/><text class="t" x="10" y="86">SURPRISED</text></g>
<g transform="translate(320,30)"><rect width="72" height="72" fill="#1a2840"/><rect x="28" y="14" width="16" height="20" fill="#3a4a6a"/><circle cx="32" cy="22" r="1.5" fill="#fff"/><circle cx="40" cy="22" r="1.5" fill="#fff"/><rect x="24" y="32" width="24" height="22" fill="#4a5a7a"/><line x1="20" y1="22" x2="14" y2="10" stroke="#4a5a7a" stroke-width="3"/><line x1="52" y1="22" x2="58" y2="10" stroke="#4a5a7a" stroke-width="3"/><circle cx="36" cy="60" r="3" fill="#f5e89c"/><circle cx="22" cy="58" r="2" fill="#f5e89c"/><circle cx="50" cy="58" r="2" fill="#f5e89c"/><text class="t" x="20" y="86">CHEER</text></g>
<g transform="translate(440,30)"><rect width="72" height="72" fill="#1a2840"/><rect x="0" y="40" width="72" height="32" fill="#2e5c8a"/><line x1="0" y1="42" x2="72" y2="42" stroke="#4a7ba8" stroke-width="2"/><rect x="28" y="36" width="16" height="6" fill="#3a4a6a"/><circle cx="20" cy="50" r="2" fill="#a8d8e8"/><circle cx="56" cy="48" r="2" fill="#a8d8e8"/><text class="t" x="18" y="86">DROWN</text></g>
<!-- Row 2 -->
<g transform="translate(20,138)"><rect width="72" height="72" fill="#1a2840"/><rect x="24" y="48" width="24" height="14" fill="#666"/><path d="M28,38 L26,28 L32,32 L30,18 L36,28 L38,16 L42,28 L46,18 L44,30 L50,24 L48,40" fill="#cc4422"/><text class="t" x="22" y="86">BURN</text></g>
<g transform="translate(120,138)"><rect width="72" height="72" fill="#1a2840"/><g transform="translate(28,42) rotate(15 8 12)"><rect width="16" height="20" fill="#3a4a6a"/><circle cx="4" cy="6" r="1" fill="#fff"/><circle cx="12" cy="6" r="1" fill="#fff"/></g><line x1="20" y1="22" x2="22" y2="14" stroke="#aaa" stroke-width="2"/><line x1="46" y1="20" x2="50" y2="12" stroke="#aaa" stroke-width="2"/><circle cx="36" cy="68" r="1.5" fill="#888"/><text class="t" x="22" y="86">FALL</text></g>
<g transform="translate(220,138)"><rect width="72" height="72" fill="#1a2840"/><rect x="28" y="20" width="16" height="20" fill="#3a4a6a" opacity="0.4"/><path d="M36,16 L48,28 L36,40 L24,28 Z" fill="#fff" opacity="0.7"/><line x1="36" y1="40" x2="36" y2="60" stroke="#fff" stroke-width="2" opacity="0.7"/><text class="t" x="6" y="86">ELECTRO v1.5</text></g>
<g transform="translate(320,138)"><rect width="72" height="72" fill="#1a2840"/><rect x="28" y="20" width="16" height="40" fill="#7ad8e8" opacity="0.6"/><line x1="20" y1="28" x2="32" y2="20" stroke="#fff"/><line x1="52" y1="28" x2="40" y2="20" stroke="#fff"/><line x1="22" y1="50" x2="32" y2="42" stroke="#fff"/><text class="t" x="6" y="86">FREEZE v1.5</text></g>
<g transform="translate(440,138)"><rect width="72" height="72" fill="#1a2840"/><text class="t" x="20" y="42">HIDDEN</text><text class="t" x="14" y="56">(transition)</text><text class="t" x="18" y="86">HIDDEN</text></g>
</svg>
