<svg xmlns="http://www.w3.org/2000/svg" viewBox="0 0 560 320" shape-rendering="crispEdges">
<style>.lbl{font:10px monospace;fill:#e8eef7}.bg{fill:#0a1628}</style>
<rect class="bg" width="560" height="320"/>
<!-- Row 1 -->
<g transform="translate(20,20)"><rect width="64" height="64" fill="#7ab355"/><rect x="8" y="12" width="4" height="4" fill="#5a8f3a"/><rect x="24" y="28" width="4" height="4" fill="#5a8f3a"/><rect x="44" y="20" width="4" height="4" fill="#5a8f3a"/><rect x="36" y="48" width="4" height="4" fill="#5a8f3a"/><text class="lbl" x="0" y="80">DRY_GRASS</text></g>
<g transform="translate(120,20)"><rect width="64" height="64" fill="#3d7a3d"/><circle cx="20" cy="20" r="3" fill="#a8d8e8"/><circle cx="44" cy="32" r="3" fill="#a8d8e8"/><circle cx="28" cy="48" r="3" fill="#a8d8e8"/><text class="lbl" x="0" y="80">WET_GRASS</text></g>
<g transform="translate(220,20)"><rect width="64" height="64" fill="#2e5c8a"/><rect x="8" y="16" width="48" height="4" fill="#4a7ba8"/><rect x="12" y="36" width="40" height="4" fill="#4a7ba8"/><rect x="16" y="52" width="32" height="4" fill="#5e8fbc"/><text class="lbl" x="0" y="80">WATER</text></g>
<g transform="translate(320,20)"><rect width="64" height="64" fill="#a8d8e8"/><line x1="8" y1="16" x2="32" y2="40" stroke="#fff" stroke-width="2"/><line x1="40" y1="12" x2="56" y2="48" stroke="#fff" stroke-width="2"/><line x1="20" y1="48" x2="48" y2="56" stroke="#fff" stroke-width="2"/><text class="lbl" x="0" y="80">ICE</text></g>
<g transform="translate(420,20)"><rect width="64" height="64" fill="#5c3a1f"/><ellipse cx="20" cy="24" rx="8" ry="4" fill="#3a2410"/><ellipse cx="44" cy="40" rx="10" ry="4" fill="#3a2410"/><ellipse cx="28" cy="52" rx="6" ry="3" fill="#3a2410"/><text class="lbl" x="0" y="80">MUD</text></g>
<!-- Row 2 -->
<g transform="translate(20,120)"><rect width="64" height="64" fill="#f5f5fa"/><circle cx="16" cy="20" r="2" fill="#c8d8e8"/><circle cx="40" cy="28" r="2" fill="#c8d8e8"/><circle cx="28" cy="44" r="2" fill="#c8d8e8"/><circle cx="52" cy="52" r="2" fill="#c8d8e8"/><text class="lbl" x="0" y="80">SNOW</text></g>
<g transform="translate(120,120)"><rect width="64" height="64" fill="#1a1a1a"/><circle cx="16" cy="20" r="2" fill="#cc3322"/><circle cx="44" cy="32" r="2" fill="#cc3322"/><circle cx="28" cy="48" r="2" fill="#888"/><line x1="8" y1="40" x2="20" y2="52" stroke="#444" stroke-width="1"/><text class="lbl" x="0" y="80">SCORCHED</text></g>
<g transform="translate(220,120)"><rect width="64" height="64" fill="#2a2a3a"/><path d="M12,40 Q20,20 28,40 T44,40 T60,40" stroke="#aab" stroke-width="2" fill="none"/><path d="M8,48 Q20,32 32,48" stroke="#ccd" stroke-width="2" fill="none"/><text class="lbl" x="0" y="80">STEAM</text></g>
<g transform="translate(320,120)"><rect width="64" height="64" fill="#3a2810"/><rect x="28" y="32" width="8" height="20" fill="#4a3818"/><path d="M24,36 L32,24 L40,36 Z" fill="#5fc97e"/><path d="M20,44 L32,32 L44,44 Z" fill="#5fc97e"/><text class="lbl" x="0" y="80">PLANT</text></g>
<g transform="translate(420,120)"><rect width="64" height="64" fill="#6a6a6a"/><line x1="0" y1="20" x2="64" y2="20" stroke="#3a3a3a" stroke-width="2"/><line x1="0" y1="44" x2="64" y2="44" stroke="#3a3a3a" stroke-width="2"/><line x1="20" y1="0" x2="20" y2="20" stroke="#3a3a3a" stroke-width="2"/><line x1="44" y1="20" x2="44" y2="44" stroke="#3a3a3a" stroke-width="2"/><line x1="28" y1="44" x2="28" y2="64" stroke="#3a3a3a" stroke-width="2"/><text class="lbl" x="0" y="80">STONE</text></g>
<!-- Row 3 -->
<g transform="translate(20,220)"><rect width="64" height="64" fill="#5a6678"/><path d="M8,32 Q16,24 24,32 T40,32 T56,32" stroke="#8a96a8" stroke-width="3" fill="none"/><path d="M4,48 Q14,40 24,48 T44,48" stroke="#aab8c8" stroke-width="3" fill="none"/><text class="lbl" x="0" y="80">FOG_COVERED</text></g>
<g transform="translate(120,220)"><rect width="64" height="64" fill="#2a4a2a"/><circle cx="32" cy="32" r="20" fill="none" stroke="#f5e89c" stroke-width="2"/><circle cx="32" cy="32" r="10" fill="none" stroke="#f5e89c" stroke-width="2"/><circle cx="32" cy="32" r="3" fill="#f5e89c"/><text class="lbl" x="0" y="80">START</text></g>
<g transform="translate(220,220)"><rect width="64" height="64" fill="#3a3a3a"/><rect x="30" y="20" width="3" height="36" fill="#8a6a3a"/><path d="M33,20 L52,24 L33,32 Z" fill="#cc2222"/><text class="lbl" x="0" y="80">GOAL</text></g>
<g transform="translate(320,220)"><rect width="64" height="64" fill="#0a0a14"/><rect x="0" y="0" width="32" height="32" fill="#14142a"/><rect x="32" y="32" width="32" height="32" fill="#14142a"/><text class="lbl" x="0" y="80">EMPTY (pit)</text></g>
<text class="lbl" x="420" y="252" font-size="11">14 Terrains v2</text>
<text class="lbl" x="420" y="270" font-size="9">16x16 source @ 4x</text>
<text class="lbl" x="420" y="284" font-size="9">Mock placeholders</text>
<text class="lbl" x="420" y="298" font-size="9">Replace per ART_DIR</text>
</svg>
