<svg xmlns="http://www.w3.org/2000/svg" viewBox="0 0 360 640" shape-rendering="crispEdges">
<style>.bg{fill:#0a1628}.panel{fill:#142844;stroke:#3a5f8a;stroke-width:2}.t{font:11px monospace;fill:#e8eef7}.s{font:9px monospace;fill:#aab8c8}.title{font:bold 16px monospace;fill:#f5e89c}.lock{font:9px monospace;fill:#5a6678}</style>
<rect class="bg" width="360" height="640"/>
<rect class="panel" x="10" y="10" width="340" height="56"/>
<text class="title" x="20" y="34">SELECT WORLD</text>
<text class="s" x="20" y="52">Tap a world to enter — 22 levels each</text>
<rect class="panel" x="10" y="80" width="165" height="170"/><rect x="20" y="90" width="145" height="100" fill="#3a6a8a"/><text class="s" x="30" y="110" fill="#fff">~ ~ ~ ~ ~</text><text class="s" x="30" y="130" fill="#fff">[lighthouse]</text><text class="s" x="30" y="150" fill="#fff">~ ~ ~ ~ ~</text><text class="t" x="20" y="210">W1 · DOWNPOUR</text><text class="s" x="20" y="226">Rain</text><text class="s" x="20" y="240">★★★ 22/22</text>
<rect class="panel" x="185" y="80" width="165" height="170"/><rect x="195" y="90" width="145" height="100" fill="#c08040"/><text class="s" x="205" y="120" fill="#fff">[hillside]</text><text class="s" x="205" y="140" fill="#fff">olive trees</text><text class="t" x="195" y="210">W2 · HEATWAVE</text><text class="s" x="195" y="226">+ Sun</text><text class="s" x="195" y="240">★★☆ 18/22</text>
<rect class="panel" x="10" y="260" width="165" height="170"/><rect x="20" y="270" width="145" height="100" fill="#7a9ab0"/><text class="s" x="30" y="300" fill="#fff">[alpine valley]</text><text class="s" x="30" y="320" fill="#fff">frozen river</text><text class="t" x="20" y="390">W3 · COLD SNAP</text><text class="s" x="20" y="406">+ Frost</text><text class="s" x="20" y="420">☆☆☆ 5/22</text>
<rect class="panel" x="185" y="260" width="165" height="170" fill-opacity="0.4"/><rect x="195" y="270" width="145" height="100" fill="#5a6678" opacity="0.5"/><circle cx="267" cy="320" r="22" fill="none" stroke="#5a6678" stroke-width="3"/><rect x="259" y="316" width="16" height="14" fill="#5a6678"/><text class="lock" x="195" y="390">W4 · GALE FORCE</text><text class="lock" x="195" y="406">LOCKED</text><text class="lock" x="195" y="420">Beat W3 to unlock</text>
<rect class="panel" x="10" y="440" width="165" height="170" fill-opacity="0.4"/><rect x="20" y="450" width="145" height="100" fill="#5a6678" opacity="0.5"/><circle cx="92" cy="500" r="22" fill="none" stroke="#5a6678" stroke-width="3"/><rect x="84" y="496" width="16" height="14" fill="#5a6678"/><text class="lock" x="20" y="570">W5 · THUNDERSTORM</text><text class="lock" x="20" y="586">LOCKED</text>
<rect class="panel" x="185" y="440" width="165" height="170" fill-opacity="0.4"/><rect x="195" y="450" width="145" height="100" fill="#5a6678" opacity="0.5"/><circle cx="267" cy="500" r="22" fill="none" stroke="#5a6678" stroke-width="3"/><rect x="259" y="496" width="16" height="14" fill="#5a6678"/><text class="lock" x="195" y="570">W6 · WHITEOUT</text><text class="lock" x="195" y="586">LOCKED</text>
<rect class="panel" x="10" y="620" width="340" height="14"/><text class="s" x="20" y="632">⚙ SETTINGS</text><text class="s" x="280" y="632">45/132 ★</text>
</svg>
